<svg xmlns="http://www.w3.org/2000/svg" xmlns:xlink="http://www.w3.org/1999/xlink" viewBox="0 0 321.67 97.04">
  <defs>
    <style>
      .cls-1 {
        isolation: isolate;
      }

      .cls-2, .cls-4 {
        fill-rule: evenodd;
      }

      .cls-2 {
        fill: url(#linear-gradient);
      }

      .cls-3 {
        fill: #22b24b;
      }

      .cls-4 {
        fill: url(#linear-gradient-2);
      }

      .cls-5 {
        fill: none;
      }
    </style>
    <linearGradient id="linear-gradient" x1="435.79" y1="407.56" x2="654.23" y2="407.56" gradientUnits="userSpaceOnUse">
      <stop offset="0.24" stop-color="#fff200"/>
      <stop offset="0.29" stop-color="#dde91f"/>
      <stop offset="0.36" stop-color="#a9db4e"/>
      <stop offset="0.44" stop-color="#7cce78"/>
      <stop offset="0.52" stop-color="#56c49b"/>
      <stop offset="0.6" stop-color="#37bbb7"/>
      <stop offset="0.69" stop-color="#1fb4cd"/>
      <stop offset="0.78" stop-color="#0db0dd"/>
      <stop offset="0.88" stop-color="#03ade6"/>
      <stop offset="1" stop-color="#00ace9"/>
    </linearGradient>
    <linearGradient id="linear-gradient-2" x1="431.54" y1="460.17" x2="689.19" y2="460.17" gradientUnits="userSpaceOnUse">
      <stop offset="0" stop-color="#00ace9"/>
      <stop offset="0.3" stop-color="#02ade7"/>
      <stop offset="0.41" stop-color="#09aee1"/>
      <stop offset="0.49" stop-color="#14b2d6"/>
      <stop offset="0.55" stop-color="#25b6c7"/>
      <stop offset="0.61" stop-color="#3bbcb3"/>
      <stop offset="0.65" stop-color="#57c49a"/>
      <stop offset="0.7" stop-color="#77cd7c"/>
      <stop offset="0.74" stop-color="#9dd75a"/>
      <stop offset="0.77" stop-color="#c8e332"/>
      <stop offset="0.81" stop-color="#f6ef08"/>
      <stop offset="0.81" stop-color="#fff200"/>
    </linearGradient>
  </defs>
  <title>Sustain logo</title>
  <g id="Sustain_copy" data-name="Sustain copy" class="cls-1">
    <g id="Sustain_copy-2" data-name="Sustain copy">
      <path class="cls-2" d="M654.2,398.62a5.31,5.31,0,0,0-1.61-3.32c-1.09-1.07-4-1.61-4-1.61-55.89-14.94-211.74,29.71-212.81,30.78S589.21,380,636.35,396.12a15.27,15.27,0,0,1,7.91,6.66,2.92,2.92,0,0,0,.43.56,5.66,5.66,0,0,0,7.49.32A5.81,5.81,0,0,0,654.2,398.62Z" transform="translate(-367.51 -390.64)"/>
    </g>
  </g>
  <g id="Sustain" class="cls-1">
    <g id="Sustain-2" data-name="Sustain">
      <path class="cls-3" d="M407.38,437.94A35.2,35.2,0,0,0,401,433q-3.64-2.21-7.7-4.22t-7-3.59a31.69,31.69,0,0,1-5.14-3.38A12.26,12.26,0,0,1,378,418a10.85,10.85,0,0,1-1.08-5,9.38,9.38,0,0,1,1.42-5.27,11.45,11.45,0,0,1,3.69-3.53,16.39,16.39,0,0,1,5.17-2,28.31,28.31,0,0,1,5.8-.61A33.13,33.13,0,0,1,406,404a2.94,2.94,0,0,0,4.14-2.66v-3.12a2.93,2.93,0,0,0-1.94-2.76q-5.1-1.85-14.36-1.85a38.52,38.52,0,0,0-9.62,1.21,27,27,0,0,0-8.41,3.69,19.45,19.45,0,0,0-6,6.3,19.15,19.15,0,0,0-.82,16.35,18.91,18.91,0,0,0,4,5.62,32,32,0,0,0,6,4.54q3.43,2.06,7.38,4.06,3.74,1.9,7,3.61a37,37,0,0,1,5.62,3.59,15.16,15.16,0,0,1,3.72,4.14A11.37,11.37,0,0,1,400,460.75q-4,3-12.21,3a31,31,0,0,1-5.17-.47,42,42,0,0,1-5.56-1.34,34.8,34.8,0,0,1-5.27-2.14,3,3,0,0,0-4.3,2.64v3.24a2.92,2.92,0,0,0,1.69,2.66,21.19,21.19,0,0,0,2.24.88,43.79,43.79,0,0,0,5.19,1.37q2.74.55,5.38.84a41.83,41.83,0,0,0,4.43.29,47,47,0,0,0,10.23-1.08,25.78,25.78,0,0,0,8.57-3.51,18,18,0,0,0,5.91-6.3,19,19,0,0,0,2.19-9.47,16.76,16.76,0,0,0-1.61-7.49A21.82,21.82,0,0,0,407.38,437.94Zm111.77,9a22.1,22.1,0,0,0-4.85-3.27,67,67,0,0,0-6.43-2.82q-2.69-1.05-4.8-2a17.1,17.1,0,0,1-3.59-2,7.77,7.77,0,0,1-2.24-2.53,7.39,7.39,0,0,1-.76-3.53,6.32,6.32,0,0,1,.76-3.08,7.19,7.19,0,0,1,2.16-2.4,10.72,10.72,0,0,1,3.35-1.56,16,16,0,0,1,4.38-.55,26,26,0,0,1,8.57,1.38,3.82,3.82,0,1,0,2.4-7.25,32.71,32.71,0,0,0-9.81-1.4,29.38,29.38,0,0,0-7.67,1,21.64,21.64,0,0,0-6.62,3,15.43,15.43,0,0,0-4.64,4.9,12.9,12.9,0,0,0-1.74,6.72,14.64,14.64,0,0,0,.92,5.43,12.15,12.15,0,0,0,2.74,4.14,19,19,0,0,0,4.54,3.27,62,62,0,0,0,6.3,2.87q2.58,1,4.83,1.92a20.36,20.36,0,0,1,3.9,2.08,9.74,9.74,0,0,1,2.64,2.66,6.59,6.59,0,0,1,1,3.67q0,7.59-11.39,7.59a25.21,25.21,0,0,1-10.23-2.12,3.81,3.81,0,0,0-5.32,3.5v.23a3.78,3.78,0,0,0,2.33,3.52A32.27,32.27,0,0,0,502,472.46a33.59,33.59,0,0,0,8.07-.95,21.62,21.62,0,0,0,6.8-2.9,15.14,15.14,0,0,0,4.72-4.9,13.3,13.3,0,0,0,1.77-7,13.53,13.53,0,0,0-1.08-5.64A12.78,12.78,0,0,0,519.15,446.91Zm45.19-29.48H557.6a3.43,3.43,0,0,1-3.43-3.43v-7.83a3.43,3.43,0,0,0-4.49-3.27l-1.78.58a3.43,3.43,0,0,0-2.38,3.27V414a3.43,3.43,0,0,1-3.43,3.43h-2.42a3.43,3.43,0,0,0-3.43,3.43v.52a3.43,3.43,0,0,0,3.43,3.43h2.42a3.43,3.43,0,0,1,3.43,3.43v28.53q0,15.82,14.19,15.82a20.54,20.54,0,0,0,5.54-.67,3.45,3.45,0,0,0,2.53-3.32v0a3.47,3.47,0,0,0-4.06-3.37,10.83,10.83,0,0,1-1.58.11q-4.27,0-6.12-2.32t-1.85-7.75v-27a3.43,3.43,0,0,1,3.43-3.43h6.74a3.43,3.43,0,0,0,3.43-3.43v-.52A3.43,3.43,0,0,0,564.34,417.44Zm40-1.27a34,34,0,0,0-16.45,3.95,3.61,3.61,0,0,0,3.4,6.36,25.91,25.91,0,0,1,12.31-3q9.56,0,10.91,10.15a3.62,3.62,0,0,1-3.08,4.07l-12.89,1.81q-17.82,2.48-17.82,17.61a14.8,14.8,0,0,0,4.56,11.34q4.56,4.27,12.63,4.27,11,0,16.61-9.7h.21v4.83a3.61,3.61,0,0,0,3.61,3.61h1.43a3.61,3.61,0,0,0,3.61-3.61V436.32Q623.38,416.17,604.34,416.17Zm10.39,33.33a16.11,16.11,0,0,1-4.19,11.42,13.88,13.88,0,0,1-10.63,4.51,10.9,10.9,0,0,1-7.51-2.5,8.24,8.24,0,0,1-2.82-6.46q0-5.43,3.06-7.57t9.07-3l8.93-1.23a3.61,3.61,0,0,1,4.1,3.57Zm69.63-26.41q-4.69-5.72-13.55-5.72-11.6,0-17.72,10.23h-.21V423a4.32,4.32,0,0,0-4.32-4.32h0a4.32,4.32,0,0,0-4.32,4.32v45.35a4.32,4.32,0,0,0,4.32,4.32h0a4.32,4.32,0,0,0,4.32-4.32V441.84a18.08,18.08,0,0,1,4.25-12.31,13.62,13.62,0,0,1,10.73-4.88q12.55,0,12.55,17.19v26.47a4.32,4.32,0,0,0,8.65,0V439.62Q689.06,428.82,684.36,423.09Z" transform="translate(-367.51 -390.64)"/>
    </g>
  </g>
  <g id="u" class="cls-1">
    <g id="u-2" data-name="u">
      <path class="cls-4" d="M469.65,461.37a14.64,14.64,0,0,1-.3-3.21v-21a4.54,4.54,0,0,0-4.54-4.54h0a4.54,4.54,0,0,0-4.54,4.54v20q0,5.27-2.58,8.31a8.73,8.73,0,0,1-7,3q-10,0-10-11.34v-20a4.54,4.54,0,0,0-4.54-4.54h-.11a4.54,4.54,0,0,0-4.54,4.54v21.15c0,5.66,3.37,10.25,6.56,13.44,12.9,12.89,121.32,15.89,126.67,15.89,22.05,0,79.46-3.13,124.29-10.27C695.24,476.43,479.71,506.2,469.65,461.37Z" transform="translate(-367.51 -390.64)"/>
    </g>
    <path class="cls-5" d="M438.71,472.33h0" transform="translate(-367.51 -390.64)"/>
    <line class="cls-5" x1="70.99" y1="81.52" x2="70.99" y2="81.52"/>
  </g>
</svg>
